<svg xmlns="http://www.w3.org/2000/svg" width="500" height="210" viewBox="0 0 500 210">
  <defs>
    <linearGradient id="mernBg" x1="0" y1="0" x2="1" y2="1">
      <stop offset="0" stop-color="#12152b"/>
      <stop offset="0.36" stop-color="#316fe6"/>
      <stop offset="0.68" stop-color="#de1751"/>
      <stop offset="1" stop-color="#f28c28"/>
    </linearGradient>
    <linearGradient id="mernText" x1="0" y1="0" x2="1" y2="0">
      <stop offset="0" stop-color="#7c4dff"/>
      <stop offset="0.35" stop-color="#65b5ef"/>
      <stop offset="0.62" stop-color="#56c7d9"/>
      <stop offset="1" stop-color="#f2c038"/>
    </linearGradient>
    <pattern id="codeGrid" width="34" height="34" patternUnits="userSpaceOnUse">
      <path d="M34 0H0V34" fill="none" stroke="#ffffff" stroke-width="1" opacity="0.12"/>
    </pattern>
  </defs>
  <path d="M20,0H480a20,20,0,0,1,20,20V210H0V20A20,20,0,0,1,20,0Z" fill="url(#mernBg)"/>
  <rect width="500" height="210" fill="url(#codeGrid)" opacity="0.8"/>
  <circle cx="410" cy="26" r="74" fill="#ffffff" opacity="0.10"/>
  <circle cx="84" cy="165" r="90" fill="#ffffff" opacity="0.07"/>
  <path d="M340 52h34l14 18 14-18h34v74h-36V94l-12 15-12-15v32h-36Z" fill="#ffffff" opacity="0.11"/>
  <rect x="34" y="32" width="248" height="106" rx="23" fill="#ffffff" opacity="0.96"/>
  <image href="MERNpixel_Logo.png" x="54" y="47" width="208" height="88" preserveAspectRatio="xMidYMid meet"/>
  <g font-family="Consolas, 'Courier New', monospace" font-weight="700" fill="#ffffff" opacity="0.85">
    <text x="316" y="54" font-size="22">&lt;/&gt;</text>
    <text x="404" y="72" font-size="18">{ api }</text>
    <text x="322" y="121" font-size="18">npm run build</text>
    <text x="372" y="154" font-size="22">db.query()</text>
  </g>
  <g fill="none" stroke="#ffffff" stroke-width="2" opacity="0.65">
    <path d="M318 78h46"/>
    <path d="M404 88h52"/>
    <path d="M322 134h34"/>
  </g>
  <text x="44" y="171" font-family="Roboto, Arial, sans-serif" font-size="20" font-weight="800" fill="#ffffff">MERN Stack Developer</text>
  <text x="44" y="195" font-family="Roboto, Arial, sans-serif" font-size="13" font-weight="600" fill="#ffffff" opacity="0.9">Websites | Apps | E-Commerce | AI Integrations</text>
</svg>
