<svg xmlns="http://www.w3.org/2000/svg" width="500" height="500" viewBox="0 0 500 500">
  <g id="svgg" transform="translate(0.225 -4.14)">
    <path id="path0" d="M165.152,6.5c-3.975,6.228-4.86,30.818-1.352,37.546,1.43,2.743.687,3.374-6.406,5.45-17.186,5.03-30.129,14.73-27.836,20.861,1.421,3.8,16.238-2.1,27.438-10.939l6.737-5.313v8.621c0,4.741-.475,20.248-1.057,34.459s-.918,25.932-.749,26.046a37.169,37.169,0,0,0,5.559-.21l5.25-.419-.543-12.45c-1.733-39.767-2.394-58.462-2.078-58.785.195-.2,4.665,2.634,9.932,6.3,13.851,9.64,25.3,12.392,26.435,6.354,1.175-6.265-22.806-18.945-36.071-19.072-.444,0-.6-.353-.346-.776,1.118-1.858,3.648-20.35,3.644-26.637C173.7,6.585,168.984.5,165.152,6.5m5.25,15.344c-.706,12.241-2.557,22.284-4.015,21.786-4.157-1.423-3.721-27.437.6-36.007,2.272-4.5,4.064,2.967,3.415,14.221M326.467,11.388c-.563.7-2.116,2.685-3.451,4.4-5.2,6.687-16.345,10.667-24.562,8.772-5.046-1.164-6.355-.606-3.538,1.509,7.331,5.5,29.981-3.006,33.625-12.629.609-1.607,18.988,1,19.86,2.813.407.845,1.719,9.967,2.915,20.272,2.07,17.814,10.62,57,15.443,70.78,2.157,6.162,2.011,6.951-1.425,7.657a41.166,41.166,0,0,0-7.236,2.6c-2.333,1.09-10.754,4.581-18.713,7.758s-16.053,6.845-17.987,8.15-5.418,3.369-7.745,4.587l-4.229,2.215-.947-2.332c-8.85-21.795-17.472-45.419-24.572-67.328l-8.779-27.091,8.675-8.325c7.631-7.323,10.186-10.743,8.023-10.743-.358,0-4.512,3.6-9.232,8.01S271.321,42.7,268.027,45.418c-7.736,6.39-7.738,4.7.034,21.659,7.321,15.972,7.153,15.79,11.472,12.513,3.759-2.853,3.387-3.409,9.015,13.48,2.641,7.923,6.885,19.583,9.431,25.91s5.52,14.108,6.609,17.292c2.756,8.063,9.011,7.764,18.981-.9,1.829-1.59,34.262-14.891,42.514-17.435,6.174-1.9,6.215-2.1,2.777-13.271-2.562-8.326-11.51-45.513-11.51-47.836,0-.731,1.8-2.16,3.992-3.177l3.992-1.848V44.261a131.065,131.065,0,0,1,1.525-17.005c2.4-14.913,2.757-13.524-3.521-13.834-3.019-.149-11.122-.955-18-1.793-15.234-1.852-17.558-1.881-18.868-.241M447,20l-6.628,6.8-8.326-2.717c-10.617-3.463-9.162-3.752-18.9,3.751-4.612,3.552-11.867,8.939-16.121,11.97-9.167,6.532-9.117,6.33-2.631,10.427l5.1,3.223-3.856,2.428c-2.121,1.336-6.686,3.874-10.144,5.641l-6.289,3.213,12.277,5.4,12.276,5.4.077,8.72c.1,11.4-.442,10.966,34.551,27.68a152.369,152.369,0,0,1,16.267,8.821c3.285,2.319,4.935,2.942,5.792,2.186.66-.583,4.252-4.075,7.982-7.762a149.932,149.932,0,0,1,17.452-13.937L496.55,94l-.308-6.887a33.376,33.376,0,0,1,1.246-11.47,36.9,36.9,0,0,0,1.568-5.572c.024-1.582-10.8,9.657-15.453,16.043l-4.249,5.834-2.239-2.447c-1.231-1.345-5.077-3.715-8.547-5.267l-6.309-2.821,4.726-2.77c3.926-2.3,12.317-10.5,26.892-26.288,1.259-1.364,2.849-2.26,3.534-1.99.858.338,1.29-.826,1.39-3.75l.146-4.24-2.307,2.927c-2,2.545-2.737,2.83-5.609,2.182-5.794-1.306-23.015-8.341-35.226-14.389l-11.828-5.857,5.514-5.662,5.515-5.662,20.924,5.29c23.42,5.922,23.141,5.877,23.141,3.753a1.665,1.665,0,0,0-1.762-1.537c-2.374,0-33.864-7.3-42.168-9.78-.9-.269-4.185,2.294-8.14,6.352M187.6,15.849a10.27,10.27,0,0,1-3.615,2.537A3.427,3.427,0,0,0,181.7,21c0,1.543.181,1.561,1.747.182a13.178,13.178,0,0,1,3.428-2.15c1.86-.676,4.413-4.824,2.967-4.824a4.3,4.3,0,0,0-2.239,1.643m177.868-.141c.257.263-.371,5.449-1.392,11.525-1.112,6.608-1.634,13.17-1.3,16.326.546,5.16.482,5.326-2.868,7.355L356.48,52.99l-.551-2.744c-.3-1.51-1.225-8.277-2.05-15.038s-1.768-14.023-2.1-16.136l-.6-3.842h6.908c3.8,0,7.117.215,7.373.478m-39.281,4.474a56.446,56.446,0,0,1-6.4,6.064c-3.081,2.3-2.782,3.928.525,2.851,2.8-.913,11.087-9.332,11.087-11.267,0-2.5-1.415-1.865-5.216,2.352M43.322,18.29c-6.175.949-7.337,1.6-7.337,4.083,0,1.4-.993,2.071-3.763,2.551-5.211.9-5.766,1.4-8.574,7.618-3.27,7.243-3.053,7.691,5.378,11.121,1.927.784,2.572,1.843,2.728,4.482,1.9,31.958,10.7,81.288,14.79,82.883,3.035,1.185,42.229,1.521,43.307.373,1.21-1.292,4.057-21.605,10.716-76.471l1.709-14.087h3.282c8.065,0,2.375-13.548-6.948-16.539-2.058-.661-3.743-1.6-3.743-2.078,0-4.279-32.941-6.792-51.547-3.935m146.4,3.043c-1.76,2.282-4.3,4.43-5.633,4.774-2.31.6-5.381,3.925-5.381,5.834,0,.488,1.291-.191,2.868-1.509a46.688,46.688,0,0,1,5.918-4.1c2.822-1.578,6.914-7.621,5.878-8.684-.248-.256-1.891,1.4-3.652,3.683m260.95,1.853c-2.423,3-2.614,3.555-1,2.9a20.623,20.623,0,0,1,3.493-1.058c1.521-.252,2.808-5.761,1.314-5.626-.448.041-2.162,1.743-3.809,3.783M90.3,20.975c4.183,1.648.889,2.618-8.153,2.4-5.352-.128-17.478.133-26.947.581-16.394.776-23.017-.2-14.471-2.136,1.51-.342,3.194-.775,3.743-.963,1.823-.624,44.22-.515,45.828.119m103.956,6.608a16.176,16.176,0,0,1-7.049,6.08c-4.064,1.789-8,6.155-5.542,6.155a1.051,1.051,0,0,0,1.033-1.06c0-.584,1.935-1.913,4.3-2.953,4.542-2,14.1-12.378,11.4-12.378-.8,0-2.664,1.871-4.138,4.157M430.8,25.635l7.409,2.21-8.244,5.577C401.6,52.61,402.783,52.077,396.319,48.608l-4.446-2.387,6.941-4.619c3.818-2.539,10.759-7.648,15.425-11.351,10.031-7.962,7.607-7.285,16.562-4.615M.056,25.21c0,1.314,3.395,2.282,8.068,2.3,5.367.02,5.235.61-1.689,7.544C2.926,38.568.056,42.333.056,43.421c0,1.453,1.989-.047,7.485-5.653,7.51-7.658,8.917-10.486,5.821-11.706C10.093,24.776.056,24.132.056,25.21m101.021,2.979a8.287,8.287,0,0,1,4.771,7.3c0,1.816-.912,1.964-12.725,2.082-7,.069-16.991.6-22.206,1.168C59.435,40,26.032,40.129,24.172,38.919c-1.068-.7-.816-1.918,1.264-6.132l2.6-5.263,11.21-.02c11.7-.02,31.9-1.019,32.547-1.608,1.073-.969,26.888,1.053,29.285,2.294M480.491,46.312l11.859,4.445L480.99,62.473c-6.248,6.444-13,12.593-15.013,13.667l-3.652,1.95-14.313-6.226c-7.871-3.424-20.487-8.9-28.035-12.158-15.947-6.895-15.482-6.2-7.485-11.219,3.431-2.155,10.729-6.978,16.218-10.719s10.517-7.127,11.173-7.524c.908-.551,1.057,1.79.622,9.8-.639,11.791,1.276,28.574,3,26.32.18-.234-.045-5.267-.5-11.184a150.807,150.807,0,0,1-.227-18.652l.6-7.9,12.625,6.616a262.869,262.869,0,0,0,24.484,11.059M307.449,30.784a52.02,52.02,0,0,1-10.876.552c-4.7-.366-5.154-.245-3.552.957,3.09,2.32,17.8,1.027,20.865-1.835,1.087-1.014,1.158-1.018-6.437.327m-115.522,7.4a10.48,10.48,0,0,0-2.246,3.091c0,1.268,3.956-1.525,5-3.533,1.436-2.756-.02-2.523-2.757.442m46.689,5.948c-9.969,22.609-12.208,31.943-10.335,43.089,1.915,11.39,8.688,18.753,16.521,17.96,5.488-.555,6.1,7.1,1.181,14.817-2.451,3.846-2.1,7.922.676,7.922,3.03,0,6.7-14.367,5.015-19.616-.917-2.853-.766-4.368.877-8.808,4.484-12.112,3.585-26.6-2.614-42.177-1.925-4.838-4.122-11.055-4.88-13.815-2.1-7.629-2.833-7.558-6.442.629m52.864-2.06c0,3.757.962,5.938,2.621,5.938,1.714,0,.871-4.82-1.248-7.134-1.188-1.3-1.374-1.137-1.374,1.2m112.909-.882c-.611.756-.779,1.752-.372,2.213s.158.494-.551.073c-1.431-.846-4.462,1.218-3.684,2.51.41.683,3.376.63,4.227-.074a4.288,4.288,0,0,1,1.425-.334c1.705-.186,3.018-5.763,1.356-5.763a3.729,3.729,0,0,0-2.4,1.375M98.747,45.709C97.208,54.8,93.9,80.244,92.912,90.639c-.543,5.695-1.25,13.071-1.572,16.392-2.374,24.526-.795,22.942-22.887,22.942-20.577,0-20.316.1-22.277-8.2-.6-2.536-1.793-7.607-2.651-11.269C40.7,98.467,34.987,55.54,34.987,46.368c0-1.932.529-2.452,2.5-2.452,1.372,0,2.5.369,2.5.82,0,3.134,5.237,46.249,6.931,57.064,3.15,20.111,5.039,24.075,11.466,24.075,3.508,0,3.235-1.655-.4-2.4-3.444-.707-4.832-4.6-7.539-21.163-.875-5.353-2.038-11.346-2.586-13.318C46.636,84.6,42.07,44.73,42.663,43.66c.235-.423,4.778-.817,10.1-.877s13.714-.447,18.654-.862,13.3-.827,18.57-.916l9.587-.163-.825,4.866m204.458-3.026c-3.578,2.228-4.556,4.695-1.488,3.755,2.824-.866,6.22-4.14,5.058-4.878-.482-.3-2.087.2-3.569,1.123M93,42.379c-.362,1.961-3.081,33.818-3.018,35.345.172,4.115,1.82-5.37,2.883-16.6.939-9.926,1.038-23.649.135-18.748M61.5,45.857c-.3.5.156,1.2,1.02,1.537,2.491.982,3.406.735,3.406-.917s-3.511-2.141-4.426-.62m181.674,8.4c.488,7.311.449,7.484-1.075,4.769-1.512-2.694-3.513-3.8-3.513-1.936a16.524,16.524,0,0,0,2.3,4.354,10.4,10.4,0,0,1,1.891,7.827c-.649,6.984-1.773,5.668-5.91-6.915-.385-1.172-.62-1.219-.989-.2-.837,2.309.677,8.052,3.08,11.688,3.042,4.6,4.772,18.424,2.014,16.081-2.385-2.026-7.37-13.181-7.37-16.494,0-1.516-.437-3.032-.968-3.371-.578-.366-.012-3.176,1.4-6.975,7.581-20.345,8.325-21.063,9.142-8.826m44.315-8.747a10.015,10.015,0,0,0,1.033,2.57c1.133,2.171,4.193,2.78,3.407.679-.515-1.379-4.44-4.252-4.44-3.249M46.963,46.989c-1.073.712-.029,1,3.684,1.009,2.849.008,5.458-.446,5.8-1.009.8-1.334-7.469-1.334-9.481,0M277.37,58.825c4.872,15.166,4.865,15.1,1.549,17.327-3.186,2.142-2.354,3.208-8.813-11.3l-5.443-12.227,3.678-3.291c4.93-4.413,4.373-5,9.028,9.492M.056,49.964c0,1.378,6.471,5.281,11.061,6.672l3.927,1.191L7.55,63.175C3.428,66.116.056,69.209.056,70.049c0,2.141,1.357,1.9,3.588-.633a62.15,62.15,0,0,1,7.57-6.246c7.017-5.056,7.733-6.593,3.506-7.533a49.8,49.8,0,0,1-8.925-3.669C2.638,50.341.056,49.439.056,49.964m162.6.7C158.869,55.357,137.7,68.5,133.945,68.5c-7.121,0,8.6-12.314,20.359-15.947a38.768,38.768,0,0,0,6.193-2.415c2.611-1.561,3.648-1.309,2.163.526m29.351,4.3c10.829,5.32,13.739,7.693,11.834,9.648-2.809,2.884-20.678-4.971-29.633-13.028L171.218,48.9l5.323.544c3.489.356,8.818,2.26,15.469,5.528M305.2,49.75c-2.819.747-2,2.528,1,2.173,1.51-.178,2.666-.773,2.57-1.323-.212-1.214-1.254-1.462-3.568-.85m19.116,5.183c-7.17,9.2-8.6,15.955-4.894,23.059a20.714,20.714,0,0,1,2,9.5c0,6.059,2.7,13.063,5.447,14.147,2.029.8,1.942.031-.371-3.3-3.981-5.738-3.842-14.439.231-14.5,1.96-.028,2-.137.432-1.076-2.867-1.715-2.038-3.867,1.771-4.6,3.126-.6,6.462-3.592,6.462-5.793,0-.439-1.658.114-3.683,1.228-4.467,2.457-4.825,2.2-3.346-2.4.877-2.726,1.784-3.669,3.765-3.91,3.338-.407,4.284-2.88,1.1-2.88-2.154,0-2.329-.417-2.329-5.573V53.26l2.237,2.157c7.349,7.088,7.771,14.409,1.256,21.795-5.7,6.461-5.795,6.667-2.745,5.913,12.241-3.027,13.648-18.555,2.7-29.793-5.189-5.325-4.555-5.426-10.031,1.6m-31.394-2.761c-2.446,2.775-.9,5.457,3.39,5.895,2.544.26,3.353-.169,4.288-2.274,2.256-5.084-3.85-7.963-7.677-3.62m-125.168,1.22c.017.7.649,15.8,1.4,33.552,1.512,35.633,1.654,33.808-2.632,33.808H163.45l.651-19.209c1.3-38.337,1.922-49.431,2.766-49.431.472,0,.873.576.891,1.281m130.53,1.014a3.147,3.147,0,0,1-2.068,2.637,2.235,2.235,0,0,1-1.641-3.994c2.49-1.619,4.043-1.05,3.709,1.357m-47.186,15c1.974,8.337,1.6,20.381-.85,27.265l-1.457,4.1-.772-3.02c-.513-2.009-.384-3.152.385-3.415a2.086,2.086,0,0,0,1.155-1.916c0-1.021-.615-1.319-1.874-.909-1.435.467-1.989,0-2.357-1.98-.373-2-.07-2.591,1.319-2.591,2.017,0,5.132-3.921,4.262-5.367-.309-.514-1.554.023-2.767,1.192-3.13,3.018-3.573,2.711-3.573-2.484,0-3.9.3-4.61,1.961-4.61,1.944,0,4.718-3.73,3.615-4.862-.316-.324-1.475.248-2.576,1.272-2.31,2.146-3.045-2.739-1-6.659.669-1.283.669-2.13,0-2.555-.55-.348-.969-2.566-.929-4.928l.07-4.294,1.826,4.212A87.219,87.219,0,0,1,251.1,69.411m77.22-8.59c-1.43,7.968-1.665,8.277-4,5.234l-2.06-2.689,3.192-4.138c3.862-5.006,4.033-4.912,2.866,1.593m85.808-.563c9.969,4.56,21.024,9.378,38.478,16.771l5.933,2.514-6.432,3.327a42.258,42.258,0,0,0-9.59,6.753l-3.156,3.427-5.826-3.641c-8.542-5.34-34.159-18.264-41.709-21.043-8.072-2.971-8.171-2.487,1.7-8.251,10.026-5.852,7.45-5.87,20.6.143m-14.612-.394c-5.442,3.348-4.1,7.883,1.393,4.724,1.243-.713,3.718.076,9.45,3.012,5.21,2.669,9.015,3.947,11.56,3.884l3.8-.093L420.227,69.6c-9.994-3.255-17.6-8.186-16.623-10.783.746-2,.937-2.046-4.086,1.044m-113.027.957c-1.349,1.669-1.025,1.876,1.416.914.868-.342,1.578-1.033,1.578-1.537,0-1.416-1.617-1.081-2.994.622m14.97-.794a7.651,7.651,0,0,0,1.416,2.9c1.67,2.345,3.479,1.127,1.971-1.328-1.179-1.918-3.387-2.944-3.387-1.574m-8.381,4.6c-2.143,5.1-2.08,6.26.272,4.967,2.244-1.232,3.083-3.963,2.068-6.744-.649-1.78-.941-1.558-2.34,1.776M64.429,65.851c-4.053,1.85-7.882,6.262-7.143,8.234.662,1.774,3.65,2.195,3.65.516,0-4.2,9.383-7.769,11.976-4.562,1.018,1.259.949,1.537-.377,1.537-2.075,0-2.1,1.639-.041,2.451,3.926,1.547,5.408.735,5.408-2.963,0-1.972-.337-3.514-.749-3.427A15.707,15.707,0,0,1,72.695,66.1c-4.385-2-4.419-2-8.266-.25m259.649,8.543c-1.814,6.071-4.8-.049-3.2-6.57l.67-2.741,1.764,2.99a6.506,6.506,0,0,1,.77,6.32M237.588,89.507c1.289,1.407,3.154,2.56,4.146,2.56,1.644,0,3.763,4.517,2.652,5.655-.235.241-2.63-.766-5.323-2.237l-4.9-2.676,1.548,2.446c.88,1.389,3.558,3.112,6.2,3.984,4.9,1.619,6.294,4.1,2.31,4.1-7.632,0-12.9-8.248-13.367-20.937l-.343-9.286,2.367,6.917c1.3,3.8,3.421,8.068,4.711,9.476M146.656,78.269a28.882,28.882,0,0,1-6.488,5.172c-2.945,1.471-5.378,5.093-5.378,8a6.045,6.045,0,0,1-2,3.184c-2.823,2.623-2.481,3.96.5,1.954a9.568,9.568,0,0,0,3.3-4.891c.586-2.344,2-3.885,5.237-5.709,2.439-1.373,4.578-2.857,4.756-3.3s1.4-2.427,2.715-4.418c3.073-4.649,1.7-4.649-2.647,0m269.351,3.49c4.242,2.219,11.512,6.333,16.156,9.141,8.25,4.989,8.476,5.06,9.849,3.047,1.271-1.865,11.275-9.051,12.6-9.051.3,0,.546,6.481.546,14.4,0,9.931.331,14.194,1.063,13.729.687-.437.988-5.715.848-14.932-.12-7.841.076-14.557.433-14.924s.65,7.731.65,17.994v18.661l-4.569-3.227c-2.514-1.775-10.036-5.728-16.717-8.784s-16.191-7.693-21.131-10.3l-8.982-4.746.328-7.521c.181-4.138.528-7.522.771-7.522s3.914,1.816,8.155,4.035M494.69,92.653c-.06.04-2.355,1.383-5.1,2.985A125.357,125.357,0,0,0,467.1,113.23l-5.524,5.484.035-17.418c.026-13.518.322-17.419,1.321-17.421,1.965-.006,9.241,4,13.48,7.428,2.083,1.683,3.91,2.889,4.057,2.68s3.159-4.061,6.692-8.56l6.421-8.182.609,7.67c.336,4.217.56,7.7.5,7.743M149.985,83.261a11.375,11.375,0,0,1-3.929,4.184c-2.788,1.69-7.918,9.425-6.926,10.443.278.286,1.325-.552,2.325-1.862a75.832,75.832,0,0,1,5.485-6.016c2.017-2,3.975-4.889,4.35-6.424.843-3.45.157-3.622-1.306-.325m-89.049.316c-3.3,1.255-3.879,2.372-2.823,5.478,1.037,3.054,2.367,3.9,3.01,1.922.25-.768,1.174-.768,3.143,0,5.883,2.3,14.58-.716,15.45-5.35.5-2.675-2.716-2.157-4.985.8a6.065,6.065,0,0,1-4.693,2.561c-3.185,0-7.333-2.892-5.358-3.736,3.508-1.5-.035-3.09-3.743-1.68m90.136,5.672c-1.954,3.121-3.306,6.233-2.893,6.658.757.777,2.58-.8,2.58-2.238a4.246,4.246,0,0,1,1.5-2.627,4.12,4.12,0,0,0,1.5-2.174c0-1.337-1.76-1.087-2.681.382m300.472,10.19c.641,10.835,1.022,13.047,2.06,11.981.9-.927-.767-23.452-1.739-23.452-.647,0-.76,4.038-.321,11.47M306.451,91.881c0,10.379,5.658,17.954,12.974,17.369,4.606-.368,5.285-5.12,1.723-12.067-3.876-7.561-14.7-11.465-14.7-5.3m8.569,1.875c2.262,1.52,5.4,6.272,5.4,8.172,0,.407-1.122-.339-2.491-1.661-3.847-3.711-4.292-1.455-.5,2.557,3.678,3.9,3.412,5.526-.656,4.033-3.169-1.163-6.33-6.879-6.33-11.445,0-3.762.939-4.1,4.577-1.656m133.151,7.531c0,4.1.428,7.171,1,7.171s1-3.073,1-7.171-.428-7.171-1-7.171-1,3.073-1,7.171m-1.71-.512c.007,2.817.2,3.848.43,2.291a18.767,18.767,0,0,0-.014-5.122c-.237-1.26-.424.014-.417,2.831M86.827,110.251c-.119,7.922-1.317,11.916-3.754,12.506-2.524.611-3.085,2.432-.894,2.9,3.741.807,6.14-3.4,6.537-11.458.258-5.262.024-7.8-.725-7.8-.609,0-1.133,1.729-1.164,3.842M415.873,146.84c-5.46,2-9.544,6.362-10.261,10.967l-.6,3.847-3.045-1.616c-4.638-2.463-12.038-2.094-16.188.807-15.84,11.066-.06,38.369,25.2,43.593a57.242,57.242,0,0,1,10.449,3.012c3.681,1.922,4.482,1.783,5.141-.9.312-1.268,3.256-5.9,6.543-10.3,19.635-26.265,8.3-58.757-17.236-49.412m75.88,6.439c-1.159,14.636-4.238,22.28-14.173,35.182-23.977,31.137-13.8,66.307,19.246,66.486,5.78.031,2.4-3.757-4.384-4.911C468.56,245.975,458.107,219.5,472.8,200.3c9.1-11.889,14.873-20.362,16.506-24.224,2.479-5.866,6.034-22.33,5.474-25.356-.509-2.747.02-2.878,2.461-.61,1.649,1.532,1.825,1.537,1.825.058,0-1.7-3.6-4.827-5.563-4.827-.687,0-1.374,3.1-1.755,7.94m-60.914-2.9c9.305,5.824,12.825,19.9,7.992,31.965-3.149,7.857-14.4,22.732-16.519,21.847-.873-.364-5.146-1.55-9.5-2.635-13.893-3.465-24-11.39-29.093-22.8-6.083-13.64,7.85-23.9,18.915-13.924,3.734,3.365,4.588,3.1,4.67-1.478a15.42,15.42,0,0,1,23.531-12.975M.056,150.3c0,.612,2.415,4.933,5.368,9.6,29.366,46.433,27.627,90.959-3.553,90.959-1.168,0-1.815.753-1.815,2.112,0,1.934.4,2.053,4.741,1.416,26-3.81,32.485-37.027,14.8-75.788C14.493,167.412.056,146.5.056,150.3m102.918,5.925c-6.117,3.129-13.018,11.367-18.681,22.3-4.066,7.85-4.319,14.325-.944,24.087,1.995,5.77,2.688,5.452-11.571,5.329-14.585-.126-15.415,1.87-1.125,2.706,15.838.927,29.839-3.249,57.828-17.251,7.783-3.893,14.349-7.079,14.592-7.079s.739,2.881,1.1,6.4c2.179,21.1,9.334,44.942,20.567,68.552,11.925,25.067,11.5,25.52-29.758,31.61-28.2,4.162-39.785,7.645-49,14.722-1.866,1.434-3.705,2.409-4.086,2.168-1.659-1.053-4.96-16.373-5.961-27.666C73.306,252.4,66.4,217.453,62.222,212.717c-2.587-2.935-2.488-1.833,1.149,12.732C67.233,240.921,70.3,261,71.9,281.351c2.224,28.3,5.891,33.781,17.983,26.9,9.307-5.3,20.039-8.551,35.474-10.756,55.195-7.886,56.737-9.069,44.394-34.053A236.583,236.583,0,0,1,147.759,194c-1.455-9.574-3.318-11.593-9.068-9.826-5.469,1.683-6.069.688-5.27-8.723,1.324-15.558-7.83-27.09-15.023-18.93-1.7,1.929-1.793,1.92-5.285-.512-4.35-3.031-3.769-3.043-10.14.216m325.237,1a4.75,4.75,0,0,0,1.747,3.112c1.663,1.329,1.663,1.366,0,.771-2.98-1.065-2.334,1.955,1.846,8.63.545.87,4.391-2.551,4.388-3.9-.006-2.335-3.61-7.927-5.931-9.2-1.688-.927-2.05-.823-2.05.59M111.692,159.2c3.532,3.052,4.768,6.593,5.707,16.358a79.205,79.205,0,0,0,2.043,11.782c2.839,9.674-.148,8.347-5.567-2.473-3.973-7.932-4.264-9.033-3.644-13.831.732-5.665-.453-9.309-3.027-9.309-4.117,0-19.151,19.4-21.257,27.422-1.574,6.006-2.393,5.422-1.849-1.319.694-8.586,12.106-25.278,20.25-29.617,3.86-2.057,3.811-2.063,7.342.986m15.466.377c5.023,4.441,6.925,26.436,2.5,28.869-2.1,1.154-2.364-2.008-.984-11.907,1.623-11.654-2.3-19.187-7.811-15-3.541,2.688-4.243.885-1.032-2.652,2.131-2.349,4.1-2.162,7.331.694M324.6,163.76c-8.145,6.056-9.843,13.982-7.687,35.877,8.488,86.251,9.813,89.729,34.124,89.58,30.676-.188,46.475-25.948,29.4-47.932-4.506-5.8-11.506-20.873-16.727-36.013-9.043-26.227-15.619-39.4-21.415-42.917-4.678-2.838-12.862-2.187-17.693,1.4m-61.031.958-1.205,2.988-3.393-2.055c-7.087-4.293-22.537-1.868-28.015,4.394-2.267,2.592-4.671,11.852-3.3,12.72,1.094.694,1.639-.376,2.449-4.8a14.259,14.259,0,0,1,3.524-6.527c2.59-2.548,2.792-2.6,2.284-.608a4.734,4.734,0,0,0,.644,3.674,2.541,2.541,0,0,1,.613,2.466c-3.544,5.887-.647,15.771,3.987,13.6,3.391-1.587,3.657-1.5,2.456.8-1.385,2.656,1.354,5.551,4.638,4.907,2.262-.444,2.3-.361.851,1.909-1.395,2.183-1.354,2.489.509,3.828,1.773,1.275,1.873,1.8.808,4.193-1.689,3.806,1.659,7.632,5.049,5.77a6.142,6.142,0,0,1,4.207-.516c1.462.476,2.884-.149,4.943-2.173,1.589-1.564,3.176-2.547,3.528-2.187,2.021,2.075-14.883,29.418-18.187,29.418-1.735,0-3.685-2.854-3.071-4.5.329-.881-.25-1.661-1.48-1.991-1.687-.453-1.909-1.069-1.34-3.729,1.446-6.755-4.651-8.5-9.043-2.589-1.95,2.624-3.429,3.586-5.518,3.586a4.964,4.964,0,0,0-4.459,2.518c-1.307,2.048-2.162,2.4-4.572,1.909-2.453-.5-3.061-.23-3.523,1.58-.746,2.929-1.7,2.775-6.995-1.129l-4.5-3.319,3.09-1.295c1.7-.712,3.091-1.649,3.091-2.082s1.572-1.658,3.493-2.72c2.479-1.37,3.493-2.635,3.493-4.357a3.364,3.364,0,0,1,2.359-3.346c3.705-1.446,4.953-6.87,2.132-9.273a6.325,6.325,0,0,1-1.5-4.223c0-2.866-1.025-3.519-4.741-3.025-1.488.2-1.667-1.585-.25-2.484,2.675-1.7.843-4.41-4.242-6.281-6.462-2.377-7.365-5.407-3.148-10.552,3.21-3.917,5.81-3.688,11.572,1.018,4.159,3.4,4.8,3.609,4.8,1.579,0-4.351-10.792-9.856-16.461-8.4-1.848.476-2.5.238-2.5-.912,0-.855-.443-1.556-.984-1.556s-1.639-1.608-2.44-3.575c-1.548-3.8-3.694-4.026-6.33-.663-.826,1.054-2.485,1.515-4.741,1.315-4.05-.359-5.013,2.942-1.513,5.185,1.776,1.138,1.814,1.415.412,3.006-2.413,2.737-1.33,5.53,2.046,5.279l2.839-.211-2.063,2.26c-2.652,2.906-7.163,12.85-7.176,15.819l-.01,2.29-3.244-2.03c-6.184-3.87-8.068,1.7-2.994,8.855,1.89,2.661,1.893,2.788.1,4.629-4.168,4.279-2.4,5.279,9.133,5.158,1.786-.018,4.008,1.676,7.825,5.965l5.329,5.991L200,231.734a18.291,18.291,0,0,0-5.11,4.684c-1.251,1.745-2.909,3.173-3.684,3.173-2.839,0-2.5,2.008.616,3.664,7.148,3.794,16.435,1.4,18.329-4.725.48-1.551,1.465-1.282,8.251,2.259a53.428,53.428,0,0,0,14.518,5.161c6.214,1.041,6.758,1.329,6.212,3.282-.329,1.178-1.321,6.006-2.2,10.73-1.543,8.259-1.652,8.476-2.832,5.635-1.539-3.707-4.042-5.923-8.385-7.42-5.276-1.818-5.413-1.68-4.835,4.864l.533,6.033-3.768.619c-7.11,1.168-8.518,3.341-7.108,10.971,7.5,40.622,8.9,42.78,26.9,41.709,13.1-.779,14.987-2.552,17.594-16.547a128.421,128.421,0,0,1,5.618-19.118c4.794-12.268,3.393-17.406-4.746-17.406-1.08,0-1.346-.548-.867-1.793a20.546,20.546,0,0,0,.427-13.016c-1.586-5.516-1.478-5.49-6.706-1.6-11.565,8.6-10.987,21.024.826,17.786,5.221-1.429,14.614,2.593,11.928,5.108-1.246,1.167-5.16,1.857-4.522.8.815-1.354-.41-1.488-10.655-1.167-9.285.291-9.372.17-7.248-10.186,2.6-12.7,4.557-18.662,5.941-18.118.726.286,5.021-4.232,10.111-10.635,7.932-9.981,9.015-10.979,10.452-9.644,3.69,3.428,8.513.905,13.24-6.927,2.448-4.054,2.257-4.209-4.27-3.451l-5.951.692,1.941-5.792a67.883,67.883,0,0,0,2.59-12.287c.593-5.939.888-6.581,3.446-7.5,3.546-1.269,5.923-5.943,5.9-11.6-.025-6.945-1.138-7.927-5.956-5.258l-4.01,2.219V174.52c0-8.155-6.666-15.456-8.947-9.8m-138.676-.32c1.829,2.263,1.561,27.036-.294,27.041-1.006,0-4.793-12.9-5.477-18.662-.85-7.168,2.646-12.244,5.771-8.379m213.369-.172c7.672,4.074,10.852,9.66,19.57,34.387,7.832,22.217,12.886,33.711,18.592,42.293,16.111,24.228,3.718,46.248-26.061,46.307-13.8.027-17.771-2.8-21.525-15.349-3.327-11.121-11.47-79.9-10.674-90.155,1.01-13.006,11.44-22.078,20.1-17.483M103.257,177.649c-4.978,10.5-6.294,16.842-4.556,21.957.972,2.863.858,3.271-1.127,4.033-6.28,2.41-6.209,2.434-7.489-2.478-2.886-11.075-.445-18.149,10.412-30.186,8.039-8.913,9.021-6.539,2.76,6.675m167.019-3.843c.293,3.134.049,5.345-.637,5.781-.756.48-1.135-.873-1.183-4.221-.118-8.284-1.775-10.055-1.856-1.984-.061,6.138-.262,6.877-1.567,5.765-1.775-1.512-1.942-6.58-.369-11.21l1.128-3.322,2,2.058c1.269,1.3,2.179,3.92,2.48,7.133m-15.441-6.6c3.392,1.456,4.8,3.7,6.572,10.445a9.06,9.06,0,0,0,4.85,6.38l3.765,2.24-4.225.024a9.487,9.487,0,0,0-7.485,3.03l-3.26,3.007,3.956,1.71a15.371,15.371,0,0,0,7.735,1.187c3.664-.5,3.779-.424,3.779,2.632,0,3.239-2.383,6.9-4.491,6.9-.654,0-2.016.94-3.028,2.087a4.072,4.072,0,0,1-4.551,1.477c-1.493-.336-3-.123-3.363.474-1.211,2.013-2.655,1.187-1.568-.9,1.4-2.693,1.3-5.952-.2-6.467-.981-.336-.978-1,.014-3.235,1.622-3.655.876-4.709-3.327-4.709-3.624,0-4.238-.814-2.2-2.911,1.986-2.039-1.067-3.39-6.053-2.679-4.176.6-4.278.544-3.167-1.588a5.57,5.57,0,0,0,.55-3.8,5.371,5.371,0,0,1,.885-3.924c1.3-2.037,1.3-2.477.022-3.568-6.249-5.323,5.781-11.677,14.791-7.81m72.94,2.592c-7.193,4.6-7.946,10.706-4.149,33.68l2.243,13.574,3.017.036a13.215,13.215,0,0,1,5.51,1.5c10.855,6.37,25.122-7.243,19.047-18.173a87.049,87.049,0,0,1-4.48-11.537c-5.656-17.663-13.028-24.3-21.188-19.081m100.161-.616a3.757,3.757,0,0,0,.313,2.857c.689,1.145.983,1.064,1.537-.417a3.007,3.007,0,0,0-.313-2.858q-1-1.024-1.537.419m-89.7,4.208c3,2.779,6.416,9.731,8.6,17.507a71.014,71.014,0,0,0,3.653,10.013c2.516,5.061,1.24,10.684-3.317,14.621-3.412,2.947-5.493,3-14.873.365l-4.595-1.288-1.723-9.792c-2.514-14.286-3.1-24.949-1.566-28.739,2.438-6.042,8.853-7.289,13.823-2.687M202.656,173c-1.935,1.283-2.994,1.283-2.994,0,0-.563,1.01-1.017,2.246-1.009,1.816.013,1.959.206.749,1.009m-93.815,4.117c0,1.137-1.165,4.354-2.589,7.15-2.05,4.025-2.518,6.206-2.247,10.482.425,6.727-1.33,7.677-2.564,1.387-.813-4.149-.546-5.522,2.5-12.857,3.4-8.188,4.9-10.081,4.9-6.161m171.184,3.951c-.816,4.96-3.906,9.348-6.581,9.348-4.143,0-1.536-9.852,3.645-13.778,2.686-2.035,3.738-.447,2.935,4.43m-85.7-2.478c-.326.87-1.07,1.582-1.655,1.582-.739,0-.724-.656.05-2.137,1.239-2.376,2.534-1.927,1.606.556m6.145-.531c.25.768-.125,1.153-.873.9a3.164,3.164,0,0,1-1.747-1.793c-.25-.768.125-1.153.873-.9a3.164,3.164,0,0,1,1.747,1.793m4.608.832c-2.491,5.706-1.2,8.83,4.909,11.867l5.837,2.9-2.095,2c-3.294,3.149-1.017,5.914,3.958,4.8,1.024-.228,1.35.489,1.143,2.515-.186,1.815.263,3.052,1.248,3.438,2.344.925,1.85,5.064-.82,6.859a8.136,8.136,0,0,0-2.942,4.472c-.777,3.842-10.236,10.15-13.584,9.059-2.762-.9-8.642-10.341-11-17.666-4.172-12.947-1.885-20.1,9.425-29.495,3.553-2.952,5-3.232,3.922-.759m-92.52,9.733c1.516,2.958,2.9,5.7,3.076,6.092.286.635-6.9,4.921-8.254,4.921-1.033,0-.53-11.192.619-13.782,1.5-3.388,1.359-3.477,4.559,2.769m82.792-2.757c-2.983,4.205-3.555,10.227-.831,8.73,1.18-.648,2.146-1.789,2.146-2.537s1.109-3.035,2.465-5.085l2.465-3.729-2.216.032a6.14,6.14,0,0,0-4.03,2.589m201.919-1.876a10.793,10.793,0,0,0,1.7,3.381c1.624,2.423,1.621,2.468-.1,1.045-1.641-1.359-1.765-1.275-1.45.973.2,1.452,1.637,3.232,3.5,4.344l3.151,1.884,1.492-3.07c1.475-3.034,1.45-3.1-2.153-5.4-2-1.282-4.207-2.706-4.893-3.167s-1.248-.455-1.248.012m-127.321,5.063c.991,2.652-1.733,3.91-7.413,3.426-3.414-.292-3.839-.973-1.488-2.4,4.772-2.89,8.063-3.271,8.9-1.03M4.9,195.283c-5.4,13.9,1.194,28.89,9.128,20.746,2.615-2.684,2.927-17.645.443-21.286-2.394-3.509-8.124-3.185-9.571.54m7.908,1.29c2.528,4.87.535,17.867-2.912,18.99-3.955,1.288-5.115-1.315-4.648-10.438.575-11.239,4.1-15.223,7.56-8.552m76.044,9.98c.016.141-.645.256-1.468.256s-1.533-.346-1.577-.768-.23-3.073-.413-5.891l-.334-5.122,1.883,5.635c1.035,3.1,1.9,5.75,1.91,5.891m390.983-6.915c-1.28,4.708-.866,20.709.524,20.24.686-.232,1.382-2.031,1.547-4,.347-4.161,5.759-4.775,6.381-.726.168,1.09.755,1.848,1.3,1.685.929-.277.835-17.131-.1-18.14-.9-.966-1.49.957-1.752,5.674-.361,6.513-5.532,8.534-5.75,2.247a44.149,44.149,0,0,0-.786-6.471l-.669-3.073-.7,2.561M184.978,206.9c-1.894.7-2.591-.074-3.778-4.191-.735-2.548-.722-2.546,2.411.485,2.776,2.684,2.939,3.125,1.366,3.706m8.9-1.172c.238,1.661.065,2.785-.385,2.5a4.118,4.118,0,0,1-.9-2.764c-.044-1.234-.3-1.672-.58-.973-1.438,3.655,5.875,15.632,9.545,15.632a4.618,4.618,0,0,1,2.874,1.213c3.1,3.178,1.779-.373-1.437-3.873a41.764,41.764,0,0,1-6.074-9.378c-2.7-6.053-3.683-6.814-3.046-2.359m-51.057,4.22c-.138,13.624,7.328,41.579,13.888,52,6.508,10.337,8.388,9.478,2.6-1.187-4.388-8.083-7.707-18.414-11.081-34.487-1.478-7.043-3.289-14.65-4.023-16.9l-1.335-4.1-.047,4.678m212.6.7a15.769,15.769,0,0,0,.876,2.817c.9,2.295-1.587,7.684-3.549,7.684-.646,0-1.453.744-1.793,1.653-.414,1.108-1.422,1.5-3.052,1.177-1.482-.291-2.635.064-2.95.908-.535,1.433-4.568,1.976-4.577.616,0-.423-1.911-.872-4.242-1a45.368,45.368,0,0,1-6.482-.789c-1.235-.306-2.246-.087-2.246.488s.958,1.044,2.13,1.044c7,0,10.79,2.956,10.831,8.452.032,4.245-4.646,2.052-5.969-2.8-1.446-5.3-3.176-5.368-2.014-.076.428,1.947.53,3.793.228,4.1-1.433,1.471-3.241.248-4.089-2.766l-.937-3.33-.09,3.645c-.121,4.919,3.492,25.017,5.468,30.42,2.121,5.795,3.593,5.594,1.878-.256-1.12-3.823-1.125-4.61-.025-4.61,1.954,0,3.141,1.979,4.423,7.369,1.495,6.293,1.616,5.947-2.1,5.965-2.461.013-2.883.256-1.747,1.009a9.034,9.034,0,0,0,4.126,1.009c1.637.009,2.817.691,3.13,1.808.276.986.845,2.651,1.264,3.7.677,1.7.414,1.83-2.382,1.2-1.838-.414-3.144-.3-3.144.283,0,.546,1.684,1.315,3.743,1.711a14.352,14.352,0,0,1,4.99,1.776c.87.736,1.248.709,1.248-.092,0-.633,1.245-1.15,2.766-1.15a48.822,48.822,0,0,0,9.731-2.148,51.418,51.418,0,0,1,9.211-2.157c1.42-.006,2.246-.634,2.246-1.7,0-1.638,3.449-4.613,5.489-4.734.549-.033.862-.876.695-1.874s.845-3.212,2.246-4.921c4.269-5.208,3.086-6.894-1.6-2.283s-7.635.73-3.655-4.8c2.753-3.821,1.616-5.193-1.675-2.02-1.369,1.319-2.625,2.205-2.793,1.967-4.55-6.407-2.458-14.065,2.569-9.4,1.9,1.763,1.9,1.733.076-2.306a22.428,22.428,0,0,0-2.536-4.631c-.379-.295-2.246-4.213-4.148-8.708-6.6-15.589-11.88-25.763-11.561-22.259M188.01,212.6c1.168,1.2-1.493,3.424-4.094,3.424-2.464,0-2.483-.051-.721-2.049,1.835-2.082,3.628-2.593,4.815-1.375m304.574.351c-.339.563.308,1.025,1.438,1.025,2.542,0,2.56.729.109,4.546-1.063,1.656-1.707,3.385-1.431,3.842.721,1.2,6.371,1.028,6.371-.192,0-.563-.674-1.024-1.5-1.024-1.893,0-1.878-.5.11-3.614.883-1.384,1.347-3.212,1.029-4.062-.645-1.726-5.171-2.11-6.129-.52m-24.061,5.554c-1.841,4.928,1.814,16.985,5.151,16.985,1.219,0,1.123-.535-.5-2.817-1.261-1.771-2.179-5.048-2.475-8.827-.507-6.508-1.148-8.083-2.174-5.34m-347.109,4.257c-6.19,8.323-8.432,21.573-5.053,29.874a13,13,0,0,1,.918,6.627c-1.432,6.7,6.234-.823,9.615-9.43,2.036-5.183,1.838-25.142-.289-29.02l-1.587-2.9-3.6,4.845m155.1-3.856c0,1.831-5.75,6.336-8.039,6.3-2.228-.037-2.159-.166.8-1.488,3.123-1.393,4.8-4.46,1.747-3.193l-3.13,1.3c-1.133.469-1.49.233-1.165-.768.645-1.99,9.784-4,9.784-2.148M18.428,221.662c-2.233,3.5-1.312,4.2,1.493,1.129,1.361-1.488,1.838-2.7,1.211-3.1-.565-.36-1.783.529-2.7,1.972m341.965,1.658c1.191,2.953,1.107,3.335-1.126,5.065-3.474,2.692-5.962-1.561-3.326-5.69,2.136-3.346,2.893-3.24,4.452.625m-119.372-.514c1.224.482,1.453,1.448.971,4.086s-.252,3.606.976,4.089a2.647,2.647,0,0,1,1.606,2.236,6.523,6.523,0,0,0,1.629,3.45c3.645,4.135.052,8.271-6.513,7.5-13.012-1.533-23.567-5.786-21.968-8.853.791-1.518,1.7-1.852,3.761-1.387,2.092.471,3.265.015,5.094-1.984,1.307-1.428,3.4-2.6,4.647-2.6,1.421,0,3.266-1.34,4.934-3.586a24.428,24.428,0,0,1,2.964-3.586,11.843,11.843,0,0,1,1.9.631m-220.907,2.7c-.681,1.268-3.27,3.851-5.754,5.741-6.2,4.72-4.333,6.786,2.057,2.273,4.655-3.287,6.592-5.849,6.592-8.714,0-2.323-1.463-1.968-2.9.7m453.008.677c0,3.356,4.8,8.287,8.06,8.287,2.871,0,2.283-1.343-1.345-3.073a7.39,7.39,0,0,1-4.177-4.866c-1.186-4.136-2.539-4.321-2.539-.347m-347.305,5.829c.336,7.3-.186,10.851-.9,6.124-.868-5.755-2.629-5.654-2.859.164-.284,7.2-2.261,15-3.484,13.741-2.122-2.178-.262-17.667,2.776-23.107,3.119-5.586,4.1-4.91,4.469,3.079m228.156-3.067c.649,2.653-.958,4.841-3.055,4.161-1.135-.369-2.577-5.437-1.781-6.254,1.51-1.55,4.234-.369,4.837,2.094m-6.642,2.311c.86,3.08.776,3.213-2.027,3.213-1.859,0-2.924-.529-2.924-1.453a10.326,10.326,0,0,0-.575-2.991c-.393-1.05.162-1.66,1.747-1.917,2.924-.476,2.72-.648,3.78,3.149m16.892,6.8c-1.97,2.048-1.971,2.048-3.9-.512-2.509-3.33-2.459-4.658.246-6.6,3.438-2.473,6.725,3.924,3.655,7.114M20.006,233.189a55.281,55.281,0,0,1-6.566,6.572c-4.545,3.866-4.139,5.827.689,3.328,3.563-1.844,8.881-8.254,8.881-10.7,0-2.665-.447-2.546-3,.8m67.43,5.193c.354,10.41,1.833,15.792,5.523,20.107,6.7,7.833,26.14,12.792,28.229,7.2.453-1.211-.011-1.514-1.979-1.29-2.323.264-2.74-.268-4.35-5.55-3.452-11.324-12.149-22.59-20.49-26.542-6.936-3.286-7.243-3.018-6.934,6.074m118.2-4.681c-.029,2.384-1.668,3.972-5.574,5.4l-3.892,1.424,3.743.045a7.625,7.625,0,0,0,5.739-2c2.463-2.528,2.641-1.045.242,2-1.839,2.332-5.917,2.991-10.086,1.634-2.312-.753-2.281-.836,1.96-5.271,4.154-4.346,7.9-5.882,7.869-3.226M99.21,239.469c5.3,5,15.763,24.711,13.118,24.711-2.757,0-8.478-7.845-8.492-11.645-.009-2.329-.45-4.926-.983-5.772-.754-1.2-.971-.914-.983,1.281-.007,1.55-.523,2.817-1.144,2.817-.721,0-.933-1.232-.588-3.418.662-4.194-.938-7.586-1.893-4.01-1.03,3.861-3.744,2.935-3-1.024.443-2.368.338-2.885-.359-1.793-1.223,1.913-1.321,7.171-.135,7.171.483,0,1.478,1.5,2.214,3.33A33.83,33.83,0,0,0,102.2,258.8c4.365,4.871,4.205,5.211-1.134,2.414-6.748-3.534-10.19-11.3-10.19-22.98V233.21L93.621,235a48.562,48.562,0,0,1,5.589,4.472m258.614-1.977c1.971,3.911,2.01,3.775-1.417,5-2.8,1-2.994.884-4.108-2.583-1.864-5.8,2.8-7.836,5.525-2.418m-132.01.61c-1.442,1.679,1.784,3.54,6.137,3.54,3.625,0,3.171-3.733-.546-4.5-3.986-.818-4.078-.8-5.59.957m107.953.722c1.1,4.221.714,5.891-1.367,5.891-1.446,0-2-.683-2-2.478a14.349,14.349,0,0,0-.606-4.1c-.427-1.142-.02-1.62,1.381-1.62a2.771,2.771,0,0,1,2.589,2.305m7.64.323c1.7,4.582,1.239,6.593-1.5,6.593-1.888,0-2.621-.67-3.086-2.817-.336-1.55-.825-3.624-1.084-4.61-.828-3.134,4.494-2.35,5.674.835m7.959-1.731a36.478,36.478,0,0,0,.624,4.1c.593,3.039.465,3.2-2.5,3.2-2.3,0-3.123-.471-3.133-1.793a20.59,20.59,0,0,0-.615-4.1c-.53-2.03-.231-2.305,2.509-2.305,1.71,0,3.11.4,3.11.9M74.919,238.6a39.258,39.258,0,0,0,1.49,6.512c2.415,8.174,4.3,21.775,5.026,36.2.458,9.131,1.1,13.9,1.977,14.649,1.914,1.63,2.557-.246,1.447-4.22a44.206,44.206,0,0,1-.969-9.406c0-14.6-4.061-38.031-7.454-43q-1.525-2.238-1.517-.733m294.408,5.6c0,1.229-2,3.595-3.034,3.595-1.965,0-2.96-5.405-1.239-6.731,1.85-1.427,4.273.352,4.273,3.136m-6.725,3c1.591,3.426,1.573,3.541-.779,5.122-3.381,2.274-3.882,2.094-5.827-2.094-1.935-4.165-1.974-4.016,1.391-5.4,3.514-1.439,3.428-1.479,5.215,2.367m-27.208.978a33.824,33.824,0,0,0,.624,4.61c.633,3.249-2.15,4.993-3.064,1.921-1.606-5.393-1.455-7.94.469-7.94,1.084,0,1.971.634,1.971,1.409m18.3,2.871c1.916,5.008,2.113,4.576-2.483,5.457-3.518.674-3.667.58-4.317-2.726-.371-1.884-.894-4.231-1.165-5.217-1.23-4.485,6.183-2.171,7.964,2.487m-9.745-.438c.336,1.55.825,3.624,1.084,4.61.376,1.421-.156,1.793-2.569,1.793-2.505,0-3.15-.5-3.653-2.817-.336-1.55-.825-3.624-1.084-4.61-.375-1.421.156-1.793,2.569-1.793,2.505,0,3.15.5,3.653,2.817m-90.284,4.61c.4,8.455-2.513,14.087-7.3,14.087-.57,0,.168-1.62,1.641-3.6,1.917-2.58,2.582-4.54,2.345-6.915l-.331-3.314-2.313,4.814c-4.222,8.786-6.263,8.93-3.091.218,1.836-5.044,8.86-9.151,9.046-5.288m114.05,1.872c1.748,3.038-.361,8.116-3.37,8.116-.737,0-5.381-8.206-4.852-8.574A45.062,45.062,0,0,1,365.37,254c.293-.038,1.349,1.35,2.347,3.084m-8.619,5c2.854,5.13,2.993,4.713-2.172,6.52l-4.416,1.544-1.68-4.266c-.924-2.346-1.891-4.807-2.149-5.471-.418-1.077,1.5-1.716,6.676-2.219.823-.081,2.508,1.671,3.743,3.892m-210.335-1.192c0,1.076,1.13,4.214,2.511,6.975l2.511,5.019-3.26-3.842c-4.141-4.879-5.2-4.879-3.241,0,1.732,4.312,4.215,6.694,5.867,5.627a4.708,4.708,0,0,1,2.847-.415c2.71.458,2.085-2.158-1.747-7.308-1.921-2.583-3.493-5.157-3.493-5.722a2.255,2.255,0,0,0-1-1.658c-.549-.348-1,.247-1,1.324m199.262,3.543,2.151,5.377-2.943.93c-3.632,1.146-4.212.549-6.125-6.308l-1.5-5.379h3.135c2.842,0,3.335.5,5.285,5.379m-121.1-3.163c4.675,2.556,6.048,6.357,1.93,5.341l-2.745-.676,2.485,2.962a52.572,52.572,0,0,0,3.9,4.214c1.2,1.068,1.158,1.352-.3,1.927-3.474,1.369-6.319-1.2-7.478-6.749-1.79-8.566-1.617-9.115,2.214-7.02m102.2,2.541c-.828,1.375,1.6,11.346,3.146,12.938,1.639,1.683,1.437-.656-.687-7.937-.981-3.367-2.087-5.617-2.459-5m45.191,4.463a9.672,9.672,0,0,1-2,3.216l-2,2.419-2.465-3.057-2.465-3.056,2.718-2.285,2.718-2.283,1.747,2.125a8.145,8.145,0,0,1,1.747,2.921m60.9-4.063c-14.564,3.469-16.635,22.348-4.378,39.913,2.947,4.222,5.357,8.256,5.357,8.964,0,1.565,1.472,1.648,4.055.229a36.966,36.966,0,0,1,7.637-2.141c20.481-3.887,33.815-26.332,20.83-35.066-2.771-1.865-12.054-2.337-13.06-.665-1.176,1.954-2.277,1.007-2.921-2.519-.852-4.66-4.865-7.611-12.549-9.228a15.859,15.859,0,0,0-4.971.512m10.5,3.5c3.489,1.5,5.436,4.731,5.465,9.081.03,4.418,1.491,5.211,4.3,2.331,7.812-8.019,19.764,1.4,14.7,11.591-4.909,9.879-11.076,14.594-23.555,18.013l-8.42,2.308-5.343-7.294c-15.088-20.595-6.6-44.374,12.856-36.029m-79.972,4.331c3.552,5-5.045,8.807-9.062,4.013-3.042-3.629-2.944-4.208.919-5.481,4.964-1.634,6.081-1.433,8.143,1.468m-141.735,2,2.887,3.715-3.653-.438c-2.278-.273-3.524-.032-3.31.639.48,1.5,9.181,2.258,15.16,1.315,2.745-.433,8.583-1,12.974-1.264l7.984-.478-4.99,1.632c-16.889,5.525-49.965-1.158-36.179-7.308,4.83-2.155,5.961-1.885,9.126,2.187m129.708,1.82c2.868,3.86,2.253,4.71-3.407,4.71-3.5,0-7.229-5.7-4.778-7.292,2.74-1.783,5.618-.875,8.185,2.582m78.224-2.205c-2.952,2.3-4.123,7.159-2.095,8.681,1.523,1.144,2.006.9,3.709-1.858,1.514-2.454,1.672-3.354.7-3.974-.893-.566-.939-1.005-.157-1.5,1.279-.812,1.485-2.629.3-2.629a6.029,6.029,0,0,0-2.45,1.281M227.784,284.693c8.39,1.378,21.056.146,27.672-2.691,4.481-1.922,4.47-1.986,1.155,6.819a132.624,132.624,0,0,0-4.786,17.362l-1.914,9.733L245,317.664c-7.84,2.788-24.377,1.665-24.377-1.656,0-.288-1.3-6.65-2.9-14.139s-3.185-15.326-3.532-17.42l-.631-3.806,3.282,1.4a64.5,64.5,0,0,0,10.945,2.653m205.863-1.982a2.006,2.006,0,0,0,.44,2.254c.815.836,1.11.54,1.11-1.114q0-3.711-1.551-1.14M225.278,294.572c-1.064,1.094-.767,9.234.435,11.945,1.657,3.732,8.315,7.2,12.488,6.5,2.024-.337,3.186-.175,2.843.393-.858,1.425,2.9,1.172,4.689-.316,4.573-3.8,6.328-11.589,3.5-15.557-1.7-2.384-4.928-.84-7.571,3.622l-1.8,3.045-1.572-2.463c-2.554-4-11.368-8.86-13.011-7.174m229.88,2.037c-1.921,1.4-3.4,2.752-3.281,3.007,1.66,3.633,2.12,3.9,4.682,2.7,1.425-.667,2.591-1.941,2.591-2.831,0-.919-.475-1.318-1.1-.921-.606.384-.329-.51.614-1.989,2.11-3.3,1.065-3.295-3.5.033m-219.891,5.476c2.405,3.091,2.409,5.3.006,3.574-4.7-3.377-6.41-1.666-2.177,2.174,3.431,3.112,3.642,3.524,1.5,2.927-6.165-1.715-9.282-6.965-7.518-12.669l.656-2.121,3.17,2.288a27.307,27.307,0,0,1,4.365,3.825m9.478,2.055c-.393,4.225-2.167,6.841-2.167,3.194,0-1.979,1.638-7.3,2.247-7.3.166,0,.13,1.847-.08,4.1m1.816,2.779c-1.08,1.73-1.11,1.728-.565-.051a19.345,19.345,0,0,0,.69-3.586c.1-1.541.16-1.535.566.051a5.369,5.369,0,0,1-.691,3.586M3.3,309.942c-6.355.919-3.091,1.876,6.487,1.9,21.625.054,21.625,7.557,0,9.173-5.352.4-9.731,1.145-9.731,1.656,0,1.532,18.467.25,24.853-1.725,2.322-.717,2.38-.6,1.831,3.6-.722,5.528-3.3,8.609-6.515,7.781-1.364-.351-2.127-.2-1.8.347.87,1.443-1.99,2.228-10.594,2.91-9.319.738-10.352,2.361-1.5,2.361C17.268,337.943,28,334.059,28,330.1c0-1.836,2.042-1.743,4.768.216,8.2,5.9-4.349,14.63-22.39,15.575-13.878.727-14.222,2.83-.511,3.129,34.649.756,34.5,16.009-.17,16.853-6.944.169-9.642.594-9.642,1.52,0,3.386,25.787.535,34.311-3.794,5.3-2.689,4.955-5.076,4.127,28.946l-.734,30.1-5.628-2.319C22.222,416.243.056,414.18.056,417.34c0,1.241,1.588,1.541,8.234,1.555,21.254.046,35.663,8.015,24.564,13.586-5.378,2.7-16.3,4.8-25.063,4.819-4.254.01-7.735.421-7.735.914,0,4.328,30.336.316,36.841-4.871,3.446-2.748,3.921-7.995,4.006-44.182.076-32.737-.321-36.532-4.274-40.9-3.452-3.81-3.63-5.354-.994-8.607,3.723-4.595,1.723-10.7-4.272-13.035A3.365,3.365,0,0,1,29,323.241c0-10.492-9.859-15.594-25.7-13.3m491.005,1.9c-7,2.154-9,4.012-9.733,9.033-.554,3.792-1.173,4.738-4.011,6.128-6.168,3.02-7.568,9.053-3,12.943,2.354,2.005,1.876,4.718-1.534,8.706-4.431,5.181-5.1,12.606-4.284,47.776.781,33.781,1.057,35.223,7.37,38.513,6.661,3.469,22.679,5.851,19.855,2.953a52.554,52.554,0,0,0-7.793-2.025c-21.681-4.641-19.694-12.51,4.157-16.463,2.058-.341,3.743-1.06,3.743-1.6,0-2.414-15.876.461-20.8,3.766-3.533,2.372-3.526,2.427-3.978-29.918l-.423-30.229,3.489,2.113c1.919,1.163,6.954,2.794,11.189,3.625,9.592,1.884,10.518,1.883,10.518-.024,0-1.046-1.037-1.544-3.244-1.562-7.244-.055-19.1-4.042-20.12-6.762-1.621-4.335,9.219-9.5,20.12-9.579,4.074-.032,4.455-2.8.5-3.638-14.145-2.981-22.254-9.247-17.678-13.661.958-.923,1.423-1.1,1.037-.389-1.155,2.117.279,4.973,3.186,6.345,5.4,2.547,16.2,5.017,16.2,3.7,0-.7-2.846-1.812-6.578-2.574-6.547-1.336-10.372-4.659-10.384-9.022-.006-2.251,2.009-1.372,3,1.311s8.23,6.628,12.131,6.628c3.134,0,1.647-2.128-2.513-3.6-5.64-1.99-7.634-4.3-7.634-8.825,0-3.052.328-3.778,1.5-3.317.825.324,1.5,1.845,1.5,3.382,0,3.217.684,4.218,2.414,3.537.744-.292,1.045-1.711.771-3.625-.435-3.052-.357-3.123,2.675-2.441,1.828.412,3.123.292,3.123-.292,0-1.307-2.475-2.24-5.947-2.24-4.808,0-5.781-2.634-1.878-5.078a13.62,13.62,0,0,1,5.021-2.09c1.566,0,3.446-1.781,2.654-2.51-.192-.177-2.271.269-4.617.992m-108.787,6.167c-14.887,13.08-16.307,50.643-2.2,58.151,5.537,2.947,24.134-.919,27.392-5.695,3.437-5.037,1.042-39.858-3.35-48.694-4.319-8.69-14.283-10.408-21.844-3.762m-60.6.528a72.027,72.027,0,0,1-11.169.907c-8.77.072-8.224-.876-9.329,16.2-2.481,38.359-2.481,38.82-.039,40.162,1.956,1.074,17.754-.6,24.829-2.634.919-.264,1.21-2.094,1-6.275l-.3-5.9-6.737-.3c-5.56-.25-6.739-.607-6.75-2.049a20.454,20.454,0,0,0-.615-4.051c-.576-2.209-.343-2.305,5.568-2.305,7.329,0,10.031-1.232,10.031-4.573,0-4.39-2.63-5.955-8.7-5.176-5.538.711-8.942-.59-7.559-2.888.376-.625.564-2.84.418-4.923l-.267-3.787,6.238.134c7.53.163,9.169-1.819,2.176-2.63-4.986-.579-11.9,1.474-10.846,3.221.309.515.625,3.752.7,7.193l.137,6.257h7.355c6.666,0,7.354.19,7.354,2.03,0,2.319-1.876,2.947-9.98,3.34-6.016.291-5.809-.065-4.9,8.461.432,4.061.956,4.321,7.934,3.948l5.951-.318v8.731l-10.6,1.292c-5.831.712-10.794,1.1-11.03.854-.548-.562,2.1-50.653,2.71-51.22.251-.233,5.06-.643,10.686-.909l10.23-.485v3.431c0,4.9,2.641,4.56,3.234-.412.793-6.662.276-7.018-7.725-5.32m78.81,1.35c1.539,1.58,2.6,4.181,3.023,7.428a60.171,60.171,0,0,0,1.577,7.964c1.22,3.921,1.193,29.946-.034,32.3-2.358,4.522-18.946,9.181-24.384,6.849-11.294-4.845-10.779-37.517.813-51.585,4.653-5.647,14.839-7.23,19-2.953m-54.96,1.032c-10.225,4.727-15.425,35.767-7.856,46.9,6.687,9.838,20.314,10.721,25.8,1.674,1.79-2.956-.126-3.259-3.3-.52C351.113,379.593,339.759,370.5,340,350.236c.254-21.24,10.018-32.666,22.328-26.131,5.891,3.127,8.281,12.424,4.174,16.239-2.276,2.114-5.161,2.2-5.161.159,0-.845-.423-1.537-.939-1.537-1.874,0-2,1.885-.282,4.07,3.663,4.642,11.194-1.2,11.194-8.68,0-9.286-13.775-17.494-22.552-13.439M156.888,324.1c-3.109,8.826-12.428,12.579-15.391,6.2-3.93-8.458-15.959-9.972-28.168-3.545C101,333.244,73.014,365.766,81.975,363.19c1.327-.382,6.007-1.167,10.4-1.745,27.183-3.581,42.724-10.224,49.844-21.309a7.487,7.487,0,0,1,5.508-3.6c5.908-.971,16.015-10.183,16-14.589-.006-2.924-5.684-1.136-6.843,2.155m152.558,3.6c0,2.254.438,4.1.973,4.1s.712-1.34.374-3.073c-.588-3.017-.524-3.073,3.518-3.073,2.264,0,4.117-.461,4.117-1.024s-2.021-1.024-4.491-1.024h-4.491v4.1m83.336-3.317c-7.647,1.336-11.5,8.839-11.417,22.215.124,19.281,1.776,22.706,10.419,21.591,11.894-1.535,14.044-5.088,12.393-20.477-2.328-21.708-3.77-24.659-11.4-23.329m-43,1.416c-2.142,1.067-5.409,5.913-5.409,8.023,0,.657,2.021-.971,4.491-3.616,5.563-5.96,5.74-6.809.918-4.407M136.432,327.79c2.972,1.885,5.344,4.77,5.344,6.5,0,1.685-3.216.147-6.288-3.006-2.378-2.441-4.4-3.579-6.337-3.566-2.711.019-2.621.164,1.9,3.076,5.412,3.488,5.916,4.825,2,5.289a4.661,4.661,0,0,1-4.4-1.725c-1.781-2.2-9.788-2.82-16.606-1.284-4.955,1.115-3-.972,4.162-4.451,7.664-3.721,15.193-4.03,20.235-.831m261.686.676c3.19,6.244,4.588,30.974,1.907,33.726-1.805,1.853-11.177,4.592-13.107,3.832-3.211-1.265-4.611-21.207-2.1-29.888,2.319-8.017,10.663-12.829,13.3-7.67m-34.613,2.447c.183,1.331.782,2.3,1.331,2.163,1.473-.378,1.213-3.6-.333-4.126-.913-.312-1.228.3-1,1.963M28.748,335.366c-3.653,3.3-8.359,4.59-19.46,5.332-5.077.341-9.232,1.078-9.232,1.639,0,4.781,31.861-2.733,32.759-7.725.438-2.433-.792-2.205-4.067.753m322.221,1.439c-7.836,8.4-4.042,28.8,5.356,28.8,2.942,0,6.752-3.707,5.332-5.189-.922-.963-1.543-.867-2.816.439-4.482,4.6-9.464-1.094-9.47-10.825-.006-9.152,4.652-15.616,9.32-12.934,2.145,1.232,3.126.521,2.308-1.669-1.04-2.784-6.9-1.979-10.03,1.379M127.3,336.2c0,1.853-11.521,5.637-15.5,5.09-4.169-.575-12.948,1.413-12.948,2.93,0,1.136,1.426,1.094,6.9-.2,6.727-1.592,8.1-.446,3.589,3-3.241,2.481-4.451,2.817-8.628,2.406-3.216-.318-4.859-.09-4.859.675,0,.635,1.46,1.169,3.244,1.187,4.284.044,1.88,2.076-6.059,5.126-6.777,2.6-7.337,2.076-3.063-2.881,1.861-2.159,5.18-6.3,7.375-9.2,5.179-6.847,11.526-9.434,22.456-9.149,4.117.108,7.485.566,7.485,1.017m9.918,4.883c-7.324,7.853-22.269,14.887-33.765,15.895l-6.094.534,3.457-1.986c1.9-1.092,4.032-1.76,4.733-1.483a1.537,1.537,0,0,0,1.871-1.094c.726-1.943,7.4-6.147,7.4-4.661a9.456,9.456,0,0,1-1.08,3.13c-.917,1.758-.8,2.02.749,1.717,1.3-.254,1.916-1.43,2.131-4.057.246-3.013.934-4.052,3.7-5.582,3.97-2.195,5.256-1.465,3.679,2.087-.661,1.491-.746,2.767-.206,3.111,1.4.886,4.138-4.066,3.377-6.1a2.207,2.207,0,0,1,.725-2.689c2.127-1.383,3.889-1.11,3.889.6,0,2.195,1.738,1.9,2.994-.512a4.055,4.055,0,0,1,3.216-2.049c2.027,0,1.984.175-.783,3.143m133.19,1.4a88.3,88.3,0,0,1-10.37,1.606c-20.682,2.52-34.931,14.206-34.931,28.648,0,7.693-1.815,9.566-10.479,10.811-7.137,1.026-7.52,1.263-5.6,3.446,2.01,2.279,10.115.827,15.911-2.849,3.249-2.062,3.5-2.076,6.759-.387,8.037,4.163,19.887,1.091,28.8-7.463,5.618-5.394,6.476-7.512,8.378-20.666.752-5.2,1.9-10.118,2.55-10.922,1.02-1.261.074-3.321-1.021-2.223m106.9,4.389a23.274,23.274,0,0,0,.638,5.925c1.07,2.861,2.246-.387,1.638-4.524-.8-5.43-2.276-6.34-2.276-1.4m-344.224.779,1.594,3.5-2.792-1.483a13.775,13.775,0,0,0-5.337-1.482c-4.561,0-.988-3.185,4.441-3.96.274-.04,1.216,1.5,2.093,3.426m452.51-2.093c2.277.821,3.348,1.624,2.5,1.867-.823.236-3.554,1.109-6.069,1.941l-4.572,1.514,2.077-3.354c1.143-1.844,2.077-3.365,2.077-3.381s1.8.62,3.992,1.413m-217.926,1.346c-.509.986-1.422,5.1-2.03,9.149-2.866,19.087-18.1,31.262-31.779,25.394l-3.659-1.569,3.008-3.088c2.655-2.725,3.33-2.962,5.752-2.017,6.394,2.5,16.391-.033,18.447-4.666,1.683-3.789,1.435-3.924-1.9-1.039-3.788,3.271-10.166,5.1-14.716,4.227-4.339-.835-2.876-2.912,2.292-3.251a13.84,13.84,0,0,0,5.22-1.332c1.381-.867.979-.971-1.868-.48-2.076.359-3.9.178-4.258-.42-.993-1.648,1.455-2.62,5.887-2.341,3.16.2,4.51-.255,6.029-2.03,1.947-2.274,1.946-2.282-.039-1.514-4.973,1.926-9.062,2.064-7.612.257.766-.954,2.965-1.769,4.99-1.847,2.435-.093,2.866-.287,1.317-.592-3-.588-2.213-2.908.907-2.678,3.03.224,8.881-1.589,8.881-2.753,0-.484-1.684-.677-3.743-.43l-3.743.451,4.721-2.308c2.6-1.269,4.729-2.653,4.741-3.076.032-1.27-3.284-.857-6.366.793-1.591.852-3.106,1.329-3.367,1.062s-1.3.531-2.314,1.775c-2.086,2.565-2.479,1.7-.744-1.648,1.025-1.976.978-2.082-.4-.914a8.483,8.483,0,0,0-2.177,3.835c-.337,1.382-1.146,2.4-1.8,2.263a.983.983,0,0,0-1.23.945c-.074,1.964-1.542,2.881-1.542.964,0-1.012-.464-1.474-1.085-1.08a2.5,2.5,0,0,0-.606,2.564,4.241,4.241,0,0,1-1.563,3.727c-2.016,1.829-2.032,1.809-1.4-1.561.468-2.484.306-3.295-.6-2.979-.714.25-1.239,2.2-1.239,4.585a9.71,9.71,0,0,1-1.88,6.284c-3.8,4.313-4.893-.442-1.613-7.04,2.4-4.837,2.508-5.809.433-4.042-3.738,3.184-5.922,12.191-3.352,13.822.687.437.277,1.551-1.143,3.1-3.972,4.34-5.451-.991-2.374-8.562,4.955-12.2,18.154-19.481,39.157-21.608.916-.092,1.018.384.358,1.663M163.262,358.8c-3.492,2.621-1.218,4.759,5.061,4.759,8.907,0,14.883,8.028,12.895,17.324-.67,3.129-4.663,7.264-7.015,7.264-1.659,0-8.475-6.479-8.475-8.055,0-6.774-6.367-13.459-12.822-13.459-7.817,0-8.712,5.549-1.044,6.481,6.1.741,7.314,1.666,10.4,7.921a28.271,28.271,0,0,0,5.459,7.466c4.912,4.243,2.711,10.916-3.6,10.916-14.148,0-40.257,14.473-56.249,31.181-5.674,5.928-7.02,6.732-7.02,4.193,0-2.455-4.5-12.171-8.371-18.071l-3.6-5.486,5.624-1.555c18.139-5.015,2.524-13.978-18.086-10.379-14.212,2.48-17.413,9.284-4.385,9.322,10.194.028,11.285.58,16.287,8.23,5.6,8.561,5.631,7.794-.692,14.292-4.951,5.087-5.564,5.407-11.141,5.806-11.455.823-32.248,16.726-26.574,20.326.524.332,1.606-.694,2.4-2.279,1.864-3.7,10.784-12.281,14.118-13.582,1.412-.551,3.67-1.286,5.018-1.633,3.627-.935,3.164,1.939-.543,3.374-3.925,1.521-4.008,3.542-.1,2.392,3.491-1.028,4.717,3.8,3.577,14.1-1.127,10.178-.716,9.964-8.775,4.573-3.948-2.641-7.341-4.906-7.54-5.035s.346-2.367,1.211-4.974c1.884-5.676.157-5.961-2.621-.433-.973,1.938-2.145,3.431-2.6,3.317s-.782,3.459-.724,7.94c.061,4.605-.327,8.31-.891,8.52-3.21,1.195.923,1.341,5.514.193l5.464-1.364-4.366-.114c-4.341-.113-4.363-.131-3.743-3.314a34.4,34.4,0,0,0,.624-5.122c0-2.787,1.1-2.454,9.512,2.875l7.571,4.8L66.982,477.7c-5.427,5.571-6.253,6.076-8.043,4.928-2.181-1.4-2.967.406-1.039,2.385,1.372,1.409-.323,3.711-2.192,2.975-3.275-1.291-6.157-10.621-6.089-19.721.065-8.877-1.395-11.039-2.863-4.239-2.947,13.647,6.381,31.2,19.973,37.592,16,7.518,40.11-6.4,40.115-23.156,0-1.314.338-2.2.75-1.97s2.209,1.063,4,1.848c3,1.318,3.2,1.708,2.657,5.044-1.024,6.275-1.425,7-4.449,8.087-3.9,1.395-3.731,2.983.508,4.8,4.754,2.039,7.78,1.861,10.876-.639,3.8-3.067,3.411-5.048-.988-5.048-3.519,0-3.6-.087-2.994-3.2a34.129,34.129,0,0,0,.624-5.011c0-1.11,1.038-2.077,2.683-2.5,6.024-1.552,7.854-4.04,10.745-14.605,5.334-19.5,15.736-35.031,27.916-41.694,4.514-2.468,4.428-2.617,3.825,6.714l-.507,7.828-3.667.6c-4.723.776-12.049,5.774-14.355,9.8-.992,1.729-2.172,3.143-2.622,3.143-1.982,0-5.394,10.921-5.474,17.519-.256,21.261,23.828,36.748,43.357,27.88,17.663-8.02,22.706-38.568,8.483-51.387-6.652-6-8.561-3.045-2.161,3.34,11.248,11.221,10.317,28.789-2.075,39.156-19.283,16.133-50.053.008-44.246-23.189,1.79-7.155,4.567-14.322,5.553-14.333.554-.005,1.552-.905,2.217-2,1.422-2.338,8.574-6.795,12.494-7.785l2.745-.693v5.695a64.946,64.946,0,0,0,1.105,10.986c1.652,7.906.5,9.712-6.755,10.547-3.2.37-7.309.954-9.12,1.3-3.719.707-3.776-.3-.548-9.61,1.861-5.366,1.717-5.371,8.8.277,3.2,2.547,6.012,4.424,6.258,4.171.579-.593-5.4-6.262-9.026-8.56-1.871-1.186-2.64-2.384-2.324-3.627.924-3.627-1.881-1.06-4.726,4.322-3.192,6.041-4.263,17.259-1.88,19.706,1,1.025,1.248.656,1.248-1.848,0-3.075.119-3.148,6.929-4.3,8.472-1.436,13.309-1.5,12.866-.181-.73,2.177-12.314,15.384-12.634,14.4-.75-2.309-1.771-.848-1.771,2.534,0,3.423.871,4.6,2.01,2.7.292-.485,2.755.247,5.473,1.629,7.163,3.638,21.061,1.4,21.061-3.386,0-1.117-.852-1.1-4.741.115-6.2,1.929-12.584,1.89-16.332-.1-3.689-1.958-3.733-1.83,3.575-10.666,6.678-8.076,7.188-8.292,10.587-4.5,5.951,6.637,15.088,12.71,14.823,9.852-.04-.423-3.849-4-8.465-7.94-9.752-8.334-9.75-8.323-4.189-15.459,5.092-6.538,5.019-6.522,8.2-1.719,3.9,5.892,2.542,7.445-6.517,7.445-2.984,0-4.788,1.565-2.685,2.329a29.712,29.712,0,0,0,6.992-.055c4.854-.432,5.739-.251,5.739,1.169,0,2.354,1.733,2.1,2.5-.37.348-1.127,1.277-2.049,2.063-2.049s1.43-.461,1.43-1.024-.674-1.025-1.5-1.025a1.41,1.41,0,0,1-1.5-1.281c0-.7-1.719-3.6-3.815-6.439s-3.628-5.718-3.406-6.4c.246-.757-.185-1.014-1.1-.656-.825.325-2.672-.2-4.106-1.163s-2.93-1.41-3.325-.99.293,1.46,1.528,2.313c2.993,2.066,2.861,2.879-1.315,8.11-6.261,7.844-8.38,5.418-8.4-9.628-.014-7.7.623-7.877,13.712-3.792,1.628.508,2.246.282,2.246-.822,0-1.451-3.635-2.812-11.727-4.392-4.647-.907-4.2-11.669,1.357-32.741,3.177-12.049,3.973-13.831,6.182-13.831,7.675,0,9.2-14.3,2.622-24.552-1.886-2.94-3.146-5.815-2.8-6.39,1.7-2.82-10.564-4.108-14.069-1.478m200.1,1.429c.074,2.565,3.862,5.834,4.569,3.943a2.632,2.632,0,0,0-1.127-3.323c-2.05-1.538-3.476-1.8-3.442-.62m-54.574,5.891c.172,3.331,2.531,4.354,7.246,3.139,3.976-1.025,2.69-2.153-2.015-1.769-3.953.323-4.461.11-4.9-2.043-.361-1.763-.448-1.585-.332.672m37.585,1.643c0,1.5,5.034,4.36,5.947,3.376.491-.529-.594-1.629-2.546-2.584-1.87-.914-3.4-1.27-3.4-.791m138.224,9.6c-.8,6.252-.044,34.123.952,35.145,1.453,1.492,1.77-2.027,1.623-18-.183-19.87-1.289-27.227-2.575-17.146m-5.368,4.888c.289,23.441,1.542,30.923,1.714,10.245.1-12.577-.2-19.721-.833-19.721-.6,0-.952,3.761-.881,9.476M28,376.125c0,5.891,1.357,15.091,2.227,15.091,1.468,0,.514-16.649-.983-17.161-.766-.263-1.244.533-1.244,2.071m462.48,4.417a10.705,10.705,0,0,1,.606,2.049c0,.236.449.429,1,.429s1-.922,1-2.049c0-1.2-.665-2.049-1.6-2.049-1.052,0-1.395.557-1,1.62m3.6-.169A1.606,1.606,0,0,0,495.662,382c1.762,0,1.455-2.205-.4-2.839-.651-.223-1.185.325-1.185,1.217m-494.026.6c0,.563.9,1.025,2,1.025s2-.461,2-1.025-.9-1.024-2-1.024-2,.461-2,1.024M423.9,386.845c-1.31,2.235-13.042,30.148-14.932,35.528-8.564,24.367,1.83,53.342,18.32,51.072,7.07-.973,8.316,10.724,2.091,19.621-3.67,5.247-3.7,5.453-1.3,8.653l1.813,2.42,2.176-2.838c3.509-4.581,5.487-13.174,4.684-20.369-.991-8.886-1.008-8.689,1.453-15.442,5.241-14.38,3.713-33.332-4.421-54.81-2.881-7.607-5.822-16.032-6.537-18.724-1.286-4.845-2.454-6.63-3.343-5.112m2.06,22.2c.576,8.266-.59,9.99-2.773,4.1-.5-1.354-1.371-2.461-1.934-2.461-1.929,0-1.022,3.734,1.874,7.721,2.918,4.016,3.088,5.6,1.475,13.685l-.489,2.452-1.578-2.313a37.452,37.452,0,0,1-3.249-8.087c-1.73-5.984-3.8-7.061-3.215-1.676.419,3.9,3.7,11.642,6.077,14.33,2.642,2.993,3.718,18.213,1.254,17.745-2.2-.416-8.916-14.384-9.755-20.294-.361-2.536-1.067-5.143-1.572-5.795-.878-1.136.777-5.948,8.694-25.263,3.412-8.32,4.269-7.352,5.191,5.859m-186.772-6.675c-1.636,1.854-1.415,2.2,5.334,8.4,8.113,7.456,7.793,6.586,4.057,11.072-3.336,4-3.683,3.892-11.988-3.867-5.132-4.8-6.562-5.162-7.559-1.938-.591,1.911.362,3.308,5.766,8.452l6.473,6.164-2.959,4.435-2.958,4.436,3.363,3.63q29.834,32.219,44.89,20.874c1.673-1.27,3.145-2.153,3.272-1.962s1.748,2.826,3.6,5.857c4.172,6.821,9.737,11.075,15.687,11.992l4.541.7-3.766,1.329c-6.819,2.406-15.461,12.615-15.461,18.264,0,3.889.795,3.846,11.253-.616,13.175-5.621,20.063-11.864,21.612-19.587.478-2.384,1.553-3.275,6.064-5.023,11.482-4.449,17.105-3.3,30.933,6.324,4.938,3.436,6.016,3.773,5.933,1.853-.056-1.286-9.032-7.659-14.167-10.059-1.51-.706-2.761-1.555-2.781-1.886-1.609-27.305-4.791-33.32-24.362-46.056-7.21-4.691-7.946-4.417-7.222,2.7,1.491,14.642,7.6,27.256,17.251,35.65l6.09,5.293-4.094,1.113c-2.252.612-8.136,2.584-13.077,4.382-17.527,6.381-25.556,3.889-34.309-10.648-2.03-3.372-2.148-4.185-1.084-7.492,3.6-11.193-5.285-28.125-21.743-41.447-7.473-6.048-9.575-6.578-11.752-2.965-.359.6-3.577-1.625-7.424-5.128-7.748-7.051-7.173-6.791-9.418-4.245m-72.3,2.291c-.19.775-.825,4.034-1.412,7.243l-1.069,5.833-6.189,3.129c-11.427,5.774-23.062,20.305-27.4,34.217l-1.226,3.937-3.136-3.041a19.8,19.8,0,0,0-6.13-4.017c-2.743-.893-3.019-1.407-3.291-6.149l-.3-5.175,3.542-.681c2.539-.489,3.541-1.218,3.541-2.575,0-3.937-6.521-4.212-12.638-.531-5.46,3.285-5.922,6.126-.836,5.147l3.493-.674v5.426c0,4.92-.309,5.678-3.326,8.148l-3.325,2.724-1.119-3.236a52.011,52.011,0,0,1-1.765-8.4l-.649-5.169,8.835-8.59c18.217-17.716,56.771-37.248,54.4-27.559m80.776,4.65c.775.99-.5.242-2.833-1.661a28.494,28.494,0,0,1-4.242-3.87c0-.725,5.616,3.666,7.075,5.531m187.992,17.666c3.22,12.974,2.626,28.14-1.508,38.513l-1.224,3.073-1-3.339c-.817-2.72-.68-3.7.74-5.315,2.077-2.355,1.173-4.937-1.063-3.032-1.781,1.518-2.2,1.1-3-2.988-.539-2.767-.342-3.255,1.314-3.255,2.812,0,6.707-4.574,5.842-6.863-.621-1.648-.911-1.544-2.7.972-3.27,4.587-4.835,3.675-4.835-2.817,0-4.93.247-5.635,1.974-5.635,2.494,0,5.747-4.778,4.279-6.285-.71-.729-1.457-.453-2.394.884-3.859,5.5-5.21-1.494-1.621-8.38.747-1.433.72-2.11-.1-2.39-.686-.236-1.122-2.71-1.093-6.2l.049-5.8,2.46,6.564c1.352,3.61,3.1,9.142,3.881,12.294m-163.612-4.341c9.68,9.52,17.169,24.534,15.469,31.01-4.587,17.491-21.773,13.595-44.325-10.044l-4.885-5.122,3.388-4.523c1.864-2.488,6.478-8.5,10.254-13.358l6.865-8.832,4.355,3.21a100.8,100.8,0,0,1,8.879,7.659M258.153,416.4c-.373,1-.15,1.466.579,1.217,1.492-.511,2.314-2.839,1-2.839-.535,0-1.248.73-1.581,1.622M242.99,427.955c-.551.674-9.476-7.32-10.61-9.5-.611-1.176,1.594.4,4.9,3.5s5.876,5.8,5.709,6m11.926-1.781c.646,2.264,4.632,16.337,5.275,18.625.666,2.373,2.64.836,4.341-3.381l1.213-3,4.863,7.648c4.078,6.413,6.9,9.338,6.9,7.152,0-1.1-7.879-19.164-9.4-21.54-2.011-3.15-3.015-3.2-5.071-.247l-1.606,2.305-1.7-2.1c-.932-1.158-2.505-3.232-3.5-4.61s-1.589-1.758-1.327-.844M329,430.028c11.364,8.252,15.367,14.163,16.731,24.705l.6,4.61-3.872-7.684c-3.774-7.485-14.12-20.49-16.3-20.49-.6,0,0,1.19,1.332,2.643,2.4,2.625,2.4,2.656.423,4.217-1.922,1.515-1.894,1.555.78,1.077,2.137-.38,3.246.118,4.809,2.159l2.034,2.652-3.254,1.124c-3.8,1.314-1.517,2.98,2.625,1.913,1.9-.49,2.65.005,3.986,2.657,2.009,3.986,1.5,4.656-2.445,3.242-2.409-.862-3.045-.8-3.045.284,0,1.649,2.177,2.618,5.887,2.618,2.44,0,2.918.61,4.489,5.724,2.33,7.59,2.111,7.589-6.009-.019-7.974-7.47-12.16-14.645-15.274-26.182-3.318-12.293-3.256-12.342,6.51-5.253M97.244,436.214c2.078,6.523,2.072,6.566-.878,5.805-1.372-.353-2.5-.353-2.5,0s1.123,1.547,2.5,2.655c2.923,2.36,3.126,3.447.817,4.357-1.11.438-2.378-.216-3.743-1.932a15.933,15.933,0,0,0-6.057-4.026c-3.005-1.08-3.58-1.607-2.327-2.135.941-.4,2.753.031,4.163.98,2.35,1.58,2.481,1.57,2.237-.179a5.046,5.046,0,0,0-2.587-3.063l-2.328-1.208,3.639-3.736c4.3-4.416,4.935-4.193,7.064,2.484m175,8.9c-.221.228-1.667-1.972-3.212-4.887l-2.811-5.3-1.763,2.236a16.823,16.823,0,0,0-2.2,3.5c-.591,1.7-1.294.832-2.091-2.575-.55-2.354-.332-2.817,1.322-2.817a4.171,4.171,0,0,0,3.151-2.247c1.1-2.108,1.386-1.813,4.591,4.714,1.881,3.829,3.239,7.148,3.017,7.375m-27.984-10.83c-1.9,2.792-2.13,4.062-.721,4.062,1.258,0,3.266-3.879,2.782-5.371-.207-.638-1.134-.049-2.061,1.309m169.6,10.375c2.879,7.919,6.25,12.127,9.715,12.127,2.445,0,5.352,5.153,4.089,7.249-.655,1.089-4.794-.49-8.624-3.289-4.037-2.951-4.842-1.48-1.223,2.235a13.419,13.419,0,0,0,7.434,3.833c4.787.835,7.493,5.339,3.207,5.339-8.982,0-17.346-10.305-18.671-23.007-.669-6.417.364-17.859,1.206-13.362.212,1.127,1.5,5.12,2.866,8.875M80.9,440.5c0,.5-1.123.914-2.5.914-2.594,0-3.423-1.546-1.248-2.324,1.606-.575,3.743.23,3.743,1.41m164.723.658c.094,1.534,18.261,15.608,20.163,15.62,1.825.01.447-1.979-2.994-4.318-2.058-1.4-6.185-4.69-9.172-7.308-4.975-4.363-8.116-5.931-8-3.993m-167.866,6.4c-.574,1.69-1.224,3.073-1.445,3.073s-.4-1.383-.4-3.073c0-2,.505-3.073,1.445-3.073,1.173,0,1.249.58.4,3.073m10.306-1.493c7.065,1.728,6.845,3.963-1.21,12.287-8.879,9.176-10.454,9.629-9.653,2.78.878-7.517,4.652-16.794,6.592-16.206.881.268,2.8.779,4.272,1.138m13.157,5.889c.316,1.292.867,4.912,1.226,8.046l.652,5.7L94.022,466.9a91.833,91.833,0,0,0-10.708,1.84c-3.31,1.3,1.231,2.473,5.759,1.484,2.364-.517,6.944-1.258,10.176-1.647l5.878-.706-.687,6.234c-1.557,14.129-9.236,23.431-20.813,25.213-5.189.8-6.571-.9-2.731-3.364,2.765-1.772,2.5-3.126-.5-2.538-2.4.473-2.5.289-2.569-5.008a70.981,70.981,0,0,0-.951-10.108c-.645-3.388-.741-1.963-.366,5.379.493,9.62.435,9.989-1.576,9.989-3.259,0-8.269-2.539-10.993-5.571l-2.481-2.76,6.863-6.3c8.488-7.789,8.513-7.792,16.822-2.173,7.259,4.91,10.454,6.55,9.426,4.843-.343-.57-3.781-3.068-7.64-5.553-4.22-2.716-7.02-5.215-7.026-6.269-.014-2.612,14.827-17.19,16.734-16.439,1.082.426,1.31.214.759-.7a1.581,1.581,0,0,1,.585-2.208c2.091-1.36,2.6-1.133,3.23,1.422m23.718,6.512c4.741,5.567,3.179,14.331-3.118,17.494l-2.5,1.252-.625-6.887c-.343-3.789-.68-9.09-.749-11.782l-.124-4.892,2.747,1.459a17.739,17.739,0,0,1,4.363,3.355M114.829,466c0,11.112-.855,12.517-4.9,8.058-5.013-5.523-2.876-18.3,3.06-18.3,1.667,0,1.841.969,1.841,10.245M97.377,480.314a19.76,19.76,0,0,1-3.163,5.286c-2.616,2.23-1.3,3.049,1.553.964,3.11-2.273,5.344-7.21,4.157-9.182-.455-.757-1.41.341-2.547,2.931m212.551,5.229c-7.287,4.362-11.461,7.8-11.461,9.45,0,.535.616.447,1.371-.2a3.1,3.1,0,0,1,2.816-.6c.9.356,1.879-.4,2.6-2.031,1.138-2.561,3.194-3.577,3.194-1.576,0,2.039,1.794.966,2.378-1.424a4.8,4.8,0,0,1,2.216-3.085c1.16-.456,1.453-.2,1.038.912-.318.852-.132,1.548.413,1.548s1.407-1.124,1.917-2.5c1.048-2.83,5.013-5.595,5.013-3.5,0,4.156-25.2,20.426-27.683,17.873s8.032-13.59,16-16.814c7.837-3.171,7.886-2.67.191,1.936M64.356,491.551c3.235,2.874,5.833,4.232,9.042,4.725,3.612.556,4.5,1.1,4.5,2.74,0,1.807-.438,1.965-3.743,1.343-6.9-1.295-16.965-8.343-15.917-11.146.858-2.294.936-2.264,6.114,2.337" transform="translate(0 0)" fill-rule="evenodd"/>
  </g>
</svg>
