<svg xmlns="http://www.w3.org/2000/svg" width="50" height="50" viewBox="0 0 50 50">
  <rect width="50" height="50" rx="10" fill="#D99A18"/>
  <g fill="#fff">
    <rect x="12" y="12" width="5" height="5"/>
    <rect x="19" y="12" width="5" height="5"/>
    <rect x="12" y="19" width="5" height="5"/>
    <rect x="19" y="19" width="5" height="5"/>
    <rect x="26" y="12" width="5" height="5"/>
    <rect x="33" y="12" width="5" height="5"/>
    <rect x="33" y="19" width="5" height="5"/>
    <rect x="12" y="26" width="5" height="5"/>
    <rect x="12" y="33" width="5" height="5"/>
    <rect x="19" y="33" width="5" height="5"/>
    <rect x="26" y="26" width="5" height="5"/>
    <rect x="33" y="26" width="5" height="5"/>
    <rect x="26" y="33" width="5" height="5"/>
    <rect x="36" y="36" width="3" height="3"/>
  </g>
</svg>
